<svg id="svg" version="1.1" xmlns="http://www.w3.org/2000/svg" xmlns:xlink="http://www.w3.org/1999/xlink" width="400" height="400" viewBox="0, 0, 400,400"><g id="svgg"><path id="path0" d="M19.286 94.900 L 19.400 99.000 27.400 99.244 C 39.703 99.619,44.122 101.569,45.807 107.366 C 46.864 110.999,46.493 292.409,45.425 294.561 C 42.840 299.773,37.773 301.599,25.900 301.600 L 19.200 301.600 19.200 305.400 L 19.200 309.200 64.600 309.200 L 110.000 309.200 110.000 305.400 L 110.000 301.600 103.524 301.600 C 91.723 301.600,86.242 299.620,83.879 294.503 L 83.000 292.600 82.891 251.356 C 82.799 216.479,82.868 210.041,83.340 209.650 C 83.979 209.119,129.707 209.216,131.800 209.753 C 137.629 211.247,141.077 216.360,142.620 225.800 C 143.381 230.453,143.613 232.130,143.975 235.600 C 144.193 237.690,144.378 239.445,144.386 239.500 C 144.394 239.555,147.461 239.600,151.202 239.600 L 158.004 239.600 157.902 203.500 L 157.800 167.400 151.431 167.289 C 143.999 167.161,144.367 166.964,143.960 171.284 C 143.625 174.837,143.063 178.576,142.379 181.800 C 142.146 182.900,141.856 184.387,141.734 185.104 C 141.612 185.821,141.351 186.506,141.156 186.627 C 140.960 186.748,140.800 187.199,140.800 187.629 C 140.800 188.059,140.641 188.723,140.447 189.105 C 140.252 189.487,139.850 190.316,139.554 190.948 C 138.714 192.732,136.114 195.191,134.063 196.139 C 132.234 196.984,86.773 197.768,83.700 197.008 L 82.800 196.785 82.800 150.435 C 82.800 108.539,82.861 104.062,83.433 103.843 C 85.445 103.071,156.638 103.606,159.558 104.415 C 165.506 106.063,170.378 110.705,172.767 117.000 C 173.268 118.320,173.822 119.760,173.999 120.200 C 174.470 121.376,175.042 123.163,175.600 125.200 C 175.871 126.190,176.233 127.450,176.404 128.000 C 176.700 128.955,177.142 131.106,177.985 135.700 C 178.197 136.855,178.473 138.872,178.599 140.183 C 179.042 144.824,178.254 144.400,186.443 144.400 L 193.600 144.400 193.600 117.600 L 193.600 90.800 106.386 90.800 L 19.172 90.800 19.286 94.900 M206.989 91.701 C 206.865 92.197,206.816 94.042,206.881 95.801 L 207.000 99.000 215.200 99.242 C 219.954 99.383,224.072 99.696,225.000 99.987 C 228.953 101.229,231.461 103.065,232.937 105.800 L 233.800 107.400 233.800 200.400 L 233.800 293.400 232.937 295.000 C 230.334 299.823,226.674 301.143,214.800 301.539 L 207.000 301.800 206.885 305.500 L 206.770 309.200 252.400 309.200 L 298.030 309.200 297.915 305.500 L 297.800 301.800 290.200 301.548 C 279.867 301.205,276.200 300.247,273.412 297.161 C 270.616 294.066,270.785 297.164,270.898 251.047 L 271.000 209.400 294.577 209.297 C 310.025 209.229,318.293 209.333,318.557 209.597 C 318.779 209.819,319.429 210.000,320.002 210.000 C 320.963 210.000,324.294 211.817,325.367 212.925 C 328.365 216.024,330.953 225.363,331.846 236.300 L 332.115 239.600 339.060 239.600 L 346.004 239.600 345.902 203.500 L 345.800 167.400 339.000 167.400 L 332.200 167.400 331.915 170.200 C 330.101 187.994,327.013 194.875,320.000 196.746 C 318.672 197.101,312.015 197.197,294.600 197.113 L 271.000 197.000 271.000 150.400 L 271.000 103.800 307.400 103.679 C 346.745 103.548,346.181 103.521,350.781 105.725 C 355.157 107.822,361.200 115.452,361.200 118.881 C 361.200 119.188,361.351 119.611,361.537 119.820 C 362.838 121.290,365.473 133.048,366.619 142.500 L 366.849 144.400 374.025 144.400 L 381.200 144.400 381.200 117.600 L 381.200 90.800 294.208 90.800 L 207.215 90.800 206.989 91.701 " stroke="none" fill="#040404" fill-rule="evenodd"></path><path id="path1" d="M30.100 0.291 C 29.165 0.376,28.400 0.616,28.400 0.823 C 28.400 1.030,27.961 1.200,27.424 1.200 C 26.887 1.200,26.336 1.380,26.200 1.600 C 26.064 1.820,25.513 2.000,24.976 2.000 C 24.439 2.000,24.000 2.180,24.000 2.400 C 24.000 2.620,23.640 2.800,23.200 2.800 C 22.760 2.800,22.400 2.980,22.400 3.200 C 22.400 3.420,22.040 3.600,21.600 3.600 C 21.160 3.600,20.800 3.780,20.800 4.000 C 20.800 4.220,20.440 4.400,20.000 4.400 C 19.560 4.400,19.200 4.580,19.200 4.800 C 19.200 5.020,18.880 5.200,18.488 5.200 C 18.097 5.200,17.517 5.560,17.200 6.000 C 16.883 6.440,16.398 6.800,16.122 6.800 C 15.043 6.800,6.800 15.043,6.800 16.122 C 6.800 16.398,6.440 16.883,6.000 17.200 C 5.560 17.517,5.200 18.097,5.200 18.488 C 5.200 18.880,5.020 19.200,4.800 19.200 C 4.580 19.200,4.400 19.560,4.400 20.000 C 4.400 20.440,4.220 20.800,4.000 20.800 C 3.780 20.800,3.600 21.160,3.600 21.600 C 3.600 22.040,3.420 22.400,3.200 22.400 C 2.980 22.400,2.800 22.760,2.800 23.200 C 2.800 23.640,2.620 24.000,2.400 24.000 C 2.180 24.000,2.000 24.439,2.000 24.976 C 2.000 25.513,1.820 26.064,1.600 26.200 C 1.380 26.336,1.200 26.872,1.200 27.390 C 1.200 27.909,0.975 28.408,0.700 28.500 C -0.036 28.745,-0.036 371.255,0.700 371.500 C 0.975 371.592,1.200 372.091,1.200 372.610 C 1.200 373.128,1.380 373.664,1.600 373.800 C 1.820 373.936,2.000 374.487,2.000 375.024 C 2.000 375.561,2.180 376.000,2.400 376.000 C 2.620 376.000,2.800 376.360,2.800 376.800 C 2.800 377.240,2.980 377.600,3.200 377.600 C 3.420 377.600,3.600 377.960,3.600 378.400 C 3.600 378.840,3.780 379.200,4.000 379.200 C 4.220 379.200,4.400 379.560,4.400 380.000 C 4.400 380.440,4.580 380.800,4.800 380.800 C 5.020 380.800,5.200 381.120,5.200 381.512 C 5.200 381.903,5.560 382.483,6.000 382.800 C 6.440 383.117,6.800 383.602,6.800 383.878 C 6.800 384.957,15.043 393.200,16.122 393.200 C 16.398 393.200,16.883 393.560,17.200 394.000 C 17.517 394.440,18.097 394.800,18.488 394.800 C 18.880 394.800,19.200 394.980,19.200 395.200 C 19.200 395.420,19.560 395.600,20.000 395.600 C 20.440 395.600,20.800 395.780,20.800 396.000 C 20.800 396.220,21.160 396.400,21.600 396.400 C 22.040 396.400,22.400 396.580,22.400 396.800 C 22.400 397.020,22.760 397.200,23.200 397.200 C 23.640 397.200,24.000 397.380,24.000 397.600 C 24.000 397.820,24.439 398.000,24.976 398.000 C 25.513 398.000,26.064 398.180,26.200 398.400 C 26.336 398.620,26.872 398.800,27.390 398.800 C 27.909 398.800,28.408 399.025,28.500 399.300 C 28.745 400.036,371.255 400.036,371.500 399.300 C 371.592 399.025,372.091 398.800,372.610 398.800 C 373.128 398.800,373.664 398.620,373.800 398.400 C 373.936 398.180,374.487 398.000,375.024 398.000 C 375.561 398.000,376.000 397.820,376.000 397.600 C 376.000 397.380,376.360 397.200,376.800 397.200 C 377.240 397.200,377.600 397.020,377.600 396.800 C 377.600 396.580,377.960 396.400,378.400 396.400 C 378.840 396.400,379.200 396.220,379.200 396.000 C 379.200 395.780,379.560 395.600,380.000 395.600 C 380.440 395.600,380.800 395.420,380.800 395.200 C 380.800 394.980,381.120 394.800,381.512 394.800 C 381.903 394.800,382.483 394.440,382.800 394.000 C 383.117 393.560,383.602 393.200,383.878 393.200 C 384.440 393.200,387.302 390.695,389.767 388.045 C 390.665 387.079,391.805 385.873,392.300 385.363 C 392.795 384.853,393.200 384.198,393.200 383.906 C 393.200 383.615,393.560 383.117,394.000 382.800 C 394.440 382.483,394.800 381.903,394.800 381.512 C 394.800 381.120,394.980 380.800,395.200 380.800 C 395.420 380.800,395.600 380.440,395.600 380.000 C 395.600 379.560,395.780 379.200,396.000 379.200 C 396.220 379.200,396.400 378.840,396.400 378.400 C 396.400 377.960,396.580 377.600,396.800 377.600 C 397.020 377.600,397.200 377.240,397.200 376.800 C 397.200 376.360,397.380 376.000,397.600 376.000 C 397.820 376.000,398.000 375.561,398.000 375.024 C 398.000 374.487,398.180 373.936,398.400 373.800 C 398.620 373.664,398.800 373.128,398.800 372.610 C 398.800 372.091,399.025 371.592,399.300 371.500 C 400.036 371.255,400.036 28.745,399.300 28.500 C 399.025 28.408,398.800 27.909,398.800 27.390 C 398.800 26.872,398.620 26.336,398.400 26.200 C 398.180 26.064,398.000 25.513,398.000 24.976 C 398.000 24.439,397.820 24.000,397.600 24.000 C 397.380 24.000,397.200 23.640,397.200 23.200 C 397.200 22.760,397.020 22.400,396.800 22.400 C 396.580 22.400,396.400 22.040,396.400 21.600 C 396.400 21.160,396.220 20.800,396.000 20.800 C 395.780 20.800,395.600 20.440,395.600 20.000 C 395.600 19.560,395.420 19.200,395.200 19.200 C 394.980 19.200,394.800 18.880,394.800 18.488 C 394.800 18.097,394.440 17.517,394.000 17.200 C 393.560 16.883,393.200 16.398,393.200 16.122 C 393.200 15.043,384.957 6.800,383.878 6.800 C 383.602 6.800,383.117 6.440,382.800 6.000 C 382.483 5.560,381.903 5.200,381.512 5.200 C 381.120 5.200,380.800 5.020,380.800 4.800 C 380.800 4.580,380.440 4.400,380.000 4.400 C 379.560 4.400,379.200 4.220,379.200 4.000 C 379.200 3.780,378.840 3.600,378.400 3.600 C 377.960 3.600,377.600 3.420,377.600 3.200 C 377.600 2.980,377.240 2.800,376.800 2.800 C 376.360 2.800,376.000 2.620,376.000 2.400 C 376.000 2.180,375.561 2.000,375.024 2.000 C 374.487 2.000,373.936 1.820,373.800 1.600 C 373.664 1.380,373.128 1.200,372.610 1.200 C 372.091 1.200,371.592 0.975,371.500 0.700 C 371.343 0.229,35.199 -0.174,30.100 0.291 M193.800 117.800 L 193.800 145.000 186.346 145.109 C 177.705 145.235,178.479 145.669,177.956 140.400 C 177.771 138.530,177.435 136.055,177.210 134.900 C 176.984 133.745,176.635 131.945,176.433 130.900 C 176.232 129.855,175.872 128.325,175.633 127.500 C 175.395 126.675,175.035 125.415,174.833 124.700 C 171.843 114.102,165.787 105.600,161.227 105.600 C 160.798 105.600,160.348 105.439,160.226 105.242 C 159.714 104.414,154.833 104.280,120.098 104.139 L 83.597 103.992 83.698 150.296 L 83.800 196.600 106.800 196.716 C 130.766 196.838,131.102 196.818,134.679 195.101 C 139.377 192.847,142.224 184.777,143.464 170.200 C 143.595 168.660,143.881 167.175,144.100 166.900 C 144.695 166.152,157.729 166.192,158.353 166.944 C 158.682 167.340,158.777 177.261,158.702 203.644 L 158.600 239.800 151.200 239.800 L 143.800 239.800 143.526 236.800 C 143.284 234.154,142.997 232.013,142.185 226.800 C 142.065 226.030,141.780 224.680,141.551 223.800 C 141.321 222.920,140.948 221.480,140.721 220.600 C 139.485 215.806,137.355 212.760,134.111 211.149 L 132.200 210.200 108.000 210.200 L 83.800 210.200 83.684 251.000 C 83.560 294.691,83.517 293.659,85.570 296.284 C 88.124 299.549,92.584 300.766,102.074 300.786 C 111.095 300.805,110.800 300.652,110.800 305.310 C 110.800 307.678,110.625 309.215,110.320 309.520 C 109.623 310.217,19.577 310.217,18.880 309.520 C 18.302 308.942,18.229 302.490,18.791 301.600 C 19.100 301.110,20.734 300.956,27.685 300.762 C 40.872 300.393,44.352 298.552,45.531 291.323 C 46.167 287.423,46.208 113.549,45.574 109.633 C 44.368 102.185,40.606 100.167,27.126 99.737 C 22.877 99.602,19.175 99.314,18.900 99.097 C 18.377 98.684,18.172 92.259,18.643 91.032 C 18.864 90.456,26.852 90.407,106.343 90.499 L 193.800 90.600 193.800 117.800 M381.800 117.800 L 381.800 145.000 374.146 145.108 L 366.492 145.217 366.209 143.708 C 366.053 142.879,365.764 140.850,365.567 139.200 C 365.181 135.975,364.637 132.764,364.042 130.200 C 363.285 126.930,362.336 123.376,362.013 122.600 C 361.830 122.160,361.464 121.170,361.200 120.400 C 358.215 111.708,354.075 107.009,347.800 105.191 C 346.920 104.936,345.647 104.564,344.972 104.364 C 344.274 104.157,328.082 104.000,307.472 104.000 L 271.200 104.000 271.200 150.400 L 271.200 196.800 294.472 196.800 C 310.271 196.800,318.202 196.659,319.172 196.360 C 324.334 194.769,326.854 192.050,328.400 186.400 C 328.671 185.410,329.034 184.150,329.206 183.600 C 329.378 183.050,329.726 181.250,329.979 179.600 C 330.232 177.950,330.610 175.731,330.819 174.669 C 331.029 173.608,331.200 171.774,331.200 170.596 C 331.200 169.417,331.376 167.990,331.590 167.426 L 331.980 166.400 338.982 166.400 C 345.913 166.400,345.987 166.409,346.202 167.300 C 346.322 167.795,346.370 184.310,346.310 204.000 L 346.200 239.800 339.230 239.910 C 331.129 240.037,331.571 240.256,331.155 235.916 C 330.777 231.966,330.170 227.751,329.583 225.000 C 329.348 223.900,329.056 222.413,328.934 221.696 C 328.812 220.979,328.551 220.294,328.356 220.173 C 328.160 220.052,328.000 219.637,328.000 219.251 C 328.000 216.754,324.850 212.711,321.674 211.132 L 319.800 210.200 295.600 210.200 L 271.400 210.200 271.280 250.400 C 271.145 295.336,271.060 293.768,273.779 296.638 C 276.816 299.843,280.556 300.800,290.047 300.800 C 298.777 300.800,298.455 300.610,298.314 305.695 L 298.200 309.800 252.643 309.902 C 219.310 309.976,206.940 309.882,206.543 309.553 C 206.161 309.235,206.000 308.058,206.000 305.574 C 206.000 300.710,205.837 300.800,214.669 300.800 C 226.279 300.800,231.010 298.962,232.858 293.734 C 233.666 291.449,233.666 109.351,232.858 107.066 C 231.025 101.880,226.796 100.128,215.200 99.747 C 210.910 99.606,207.085 99.329,206.700 99.131 C 205.886 98.714,205.666 92.571,206.415 91.173 C 206.823 90.410,208.141 90.400,294.315 90.499 L 381.800 90.600 381.800 117.800 " stroke="none" fill="#fbabdb" fill-rule="evenodd"></path><path id="path2" d="M18.867 94.900 C 18.830 97.265,18.935 99.200,19.100 99.201 C 19.265 99.201,19.351 97.896,19.291 96.301 C 19.093 91.053,18.936 90.532,18.867 94.900 M206.643 91.433 C 206.294 92.342,206.343 98.718,206.700 98.937 C 206.865 99.039,207.000 97.249,207.000 94.961 C 207.000 90.468,207.003 90.495,206.643 91.433 M381.297 117.700 L 381.200 144.400 374.028 144.400 C 367.164 144.400,366.848 144.365,366.675 143.594 C 366.524 142.923,366.503 142.940,366.547 143.694 C 366.611 144.787,381.003 145.382,381.413 144.309 C 381.520 144.029,381.559 131.920,381.501 117.400 L 381.394 91.000 381.297 117.700 M193.746 95.400 C 193.747 97.600,193.814 98.449,193.895 97.287 C 193.976 96.124,193.976 94.324,193.893 93.287 C 193.811 92.249,193.745 93.200,193.746 95.400 M30.433 99.344 C 30.525 99.423,31.860 99.584,33.400 99.701 C 35.027 99.825,35.781 99.781,35.200 99.597 C 34.211 99.283,30.112 99.066,30.433 99.344 M218.433 99.345 C 218.525 99.425,219.860 99.589,221.400 99.709 C 223.098 99.841,223.728 99.802,223.000 99.611 C 221.784 99.291,218.127 99.078,218.433 99.345 M193.701 101.400 C 193.705 102.280,193.787 102.593,193.883 102.095 C 193.979 101.598,193.975 100.878,193.875 100.495 C 193.775 100.113,193.696 100.520,193.701 101.400 M101.900 103.900 C 112.075 103.959,128.725 103.959,138.900 103.900 C 149.075 103.840,140.750 103.792,120.400 103.792 C 100.050 103.792,91.725 103.840,101.900 103.900 M270.984 104.100 C 270.880 104.375,270.840 125.390,270.897 150.800 L 271.000 197.000 295.100 197.005 L 319.200 197.009 295.200 196.902 L 271.200 196.794 271.200 150.399 L 271.200 104.004 308.300 103.900 L 345.400 103.796 308.287 103.698 C 278.893 103.620,271.135 103.704,270.984 104.100 M82.993 150.400 C 82.993 176.030,83.041 186.515,83.100 173.700 C 83.159 160.885,83.159 139.915,83.100 127.100 C 83.041 114.285,82.993 124.770,82.993 150.400 M44.968 106.201 C 45.415 107.165,45.840 107.893,45.914 107.820 C 46.119 107.614,44.928 104.926,44.518 104.673 C 44.319 104.550,44.521 105.237,44.968 106.201 M160.800 104.934 C 160.800 105.037,161.381 105.324,162.091 105.572 C 162.801 105.819,163.206 105.857,162.991 105.656 C 162.535 105.229,160.800 104.658,160.800 104.934 M193.758 110.200 C 193.758 113.280,193.821 114.487,193.897 112.882 C 193.973 111.278,193.973 108.758,193.896 107.282 C 193.819 105.807,193.757 107.120,193.758 110.200 M353.322 107.613 C 354.561 108.500,356.300 110.239,357.187 111.478 C 358.074 112.717,358.800 113.590,358.800 113.419 C 358.800 112.150,352.665 106.000,351.399 106.000 C 351.218 106.000,352.083 106.726,353.322 107.613 M167.583 109.300 C 169.241 111.066,169.600 111.384,169.600 111.083 C 169.600 111.019,168.745 110.164,167.700 109.183 L 165.800 107.400 167.583 109.300 M46.197 200.400 C 46.197 250.890,46.243 271.545,46.300 246.300 C 46.357 221.055,46.357 179.745,46.300 154.500 C 46.243 129.255,46.197 149.910,46.197 200.400 M233.797 200.400 C 233.797 250.890,233.843 271.545,233.900 246.300 C 233.957 221.055,233.957 179.745,233.900 154.500 C 233.843 129.255,233.797 149.910,233.797 200.400 M193.780 130.200 C 193.780 137.900,193.834 140.993,193.899 137.074 C 193.965 133.155,193.965 126.855,193.899 123.074 C 193.834 119.293,193.780 122.500,193.780 130.200 M363.206 125.833 C 363.209 126.255,363.395 126.870,363.618 127.200 C 363.915 127.638,363.952 127.476,363.756 126.600 C 363.427 125.129,363.198 124.810,363.206 125.833 M176.244 128.600 C 176.573 130.071,176.802 130.390,176.794 129.367 C 176.791 128.945,176.605 128.330,176.382 128.000 C 176.085 127.562,176.048 127.724,176.244 128.600 M177.073 132.400 C 177.204 133.390,177.376 134.275,177.456 134.367 C 177.757 134.714,177.528 132.164,177.190 131.400 C 176.953 130.866,176.914 131.198,177.073 132.400 M365.693 137.200 C 365.693 137.970,365.775 138.285,365.876 137.900 C 365.976 137.515,365.976 136.885,365.876 136.500 C 365.775 136.115,365.693 136.430,365.693 137.200 M178.109 138.000 C 178.109 138.990,178.187 139.395,178.282 138.900 C 178.378 138.405,178.378 137.595,178.282 137.100 C 178.187 136.605,178.109 137.010,178.109 138.000 M178.928 143.800 C 179.007 144.567,179.310 144.601,186.305 144.614 L 193.601 144.628 186.428 144.505 C 180.041 144.396,179.233 144.306,179.051 143.691 C 178.896 143.168,178.866 143.195,178.928 143.800 M144.500 167.065 C 144.225 167.176,144.011 167.657,144.025 168.133 C 144.051 168.994,144.053 168.993,144.416 168.090 C 144.778 167.189,144.846 167.181,151.291 167.290 L 157.800 167.400 158.003 203.600 L 158.206 239.800 158.303 203.780 C 158.377 176.189,158.288 167.648,157.920 167.280 C 157.441 166.801,145.622 166.612,144.500 167.065 M332.262 167.100 C 332.160 167.265,335.192 167.400,339.000 167.400 C 342.808 167.400,345.840 167.265,345.738 167.100 C 345.636 166.935,342.604 166.800,339.000 166.800 C 335.396 166.800,332.364 166.935,332.262 167.100 M331.388 171.388 C 331.231 173.064,331.189 174.523,331.295 174.629 C 331.401 174.734,331.612 173.446,331.765 171.765 C 331.917 170.084,331.959 168.626,331.858 168.524 C 331.757 168.423,331.545 169.712,331.388 171.388 M143.667 171.650 C 143.630 172.447,143.511 173.708,143.401 174.450 L 143.203 175.800 143.623 174.460 C 143.854 173.723,143.974 172.463,143.889 171.660 L 143.734 170.200 143.667 171.650 M142.893 178.000 C 142.893 178.770,142.975 179.085,143.076 178.700 C 143.176 178.315,143.176 177.685,143.076 177.300 C 142.975 176.915,142.893 177.230,142.893 178.000 M330.493 178.800 C 330.493 179.570,330.575 179.885,330.676 179.500 C 330.776 179.115,330.776 178.485,330.676 178.100 C 330.575 177.715,330.493 178.030,330.493 178.800 M142.046 182.067 C 142.021 182.434,141.896 183.064,141.770 183.467 C 141.552 184.162,141.563 184.163,141.997 183.487 C 142.248 183.096,142.373 182.466,142.273 182.087 C 142.111 181.468,142.088 181.466,142.046 182.067 M329.649 182.600 C 329.616 183.040,329.496 183.850,329.383 184.400 L 329.177 185.400 329.606 184.419 C 329.842 183.879,329.961 183.069,329.872 182.619 C 329.713 181.821,329.707 181.821,329.649 182.600 M327.915 188.610 C 327.792 189.045,327.569 189.760,327.420 190.200 C 327.271 190.640,327.442 190.494,327.800 189.876 C 328.158 189.258,328.381 188.542,328.295 188.286 C 328.210 188.030,328.039 188.176,327.915 188.610 M135.200 195.236 C 134.536 195.779,134.469 195.915,135.000 195.640 C 136.305 194.966,137.028 194.412,136.600 194.415 C 136.380 194.417,135.750 194.786,135.200 195.236 M132.200 196.400 C 131.696 196.617,131.622 196.744,132.000 196.744 C 132.330 196.744,132.960 196.589,133.400 196.400 C 133.904 196.183,133.978 196.056,133.600 196.056 C 133.270 196.056,132.640 196.211,132.200 196.400 M95.529 197.100 C 102.199 197.161,112.999 197.161,119.529 197.100 C 126.058 197.038,120.600 196.988,107.400 196.988 C 94.200 196.988,88.858 197.038,95.529 197.100 M83.280 209.680 C 82.765 210.195,82.637 289.796,83.147 292.179 C 83.286 292.828,83.350 274.719,83.289 251.937 C 83.195 216.717,83.263 210.446,83.742 210.048 C 84.160 209.701,90.308 209.609,107.714 209.691 C 120.590 209.751,130.916 209.668,130.662 209.506 C 129.820 208.970,83.821 209.139,83.280 209.680 M271.067 209.467 C 269.807 210.726,270.934 295.600,272.211 295.600 C 272.321 295.600,272.138 294.948,271.805 294.151 C 271.278 292.889,271.200 287.343,271.200 251.142 L 271.200 209.582 294.962 209.691 C 308.031 209.751,318.640 209.665,318.538 209.500 C 318.309 209.129,271.437 209.096,271.067 209.467 M136.000 211.725 C 136.000 211.794,136.585 212.379,137.300 213.025 L 138.600 214.200 137.425 212.900 C 136.330 211.688,136.000 211.416,136.000 211.725 M141.858 223.600 C 142.175 225.325,142.402 225.651,142.394 224.367 C 142.391 223.835,142.211 223.130,141.994 222.800 C 141.718 222.378,141.677 222.615,141.858 223.600 M330.493 228.000 C 330.493 228.770,330.575 229.085,330.676 228.700 C 330.776 228.315,330.776 227.685,330.676 227.300 C 330.575 226.915,330.493 227.230,330.493 228.000 M142.893 228.800 C 142.893 229.570,142.975 229.885,143.076 229.500 C 143.176 229.115,143.176 228.485,143.076 228.100 C 142.975 227.715,142.893 228.030,142.893 228.800 M331.309 233.600 C 331.309 234.590,331.387 234.995,331.482 234.500 C 331.578 234.005,331.578 233.195,331.482 232.700 C 331.387 232.205,331.309 232.610,331.309 233.600 M143.714 234.600 C 143.717 235.700,143.795 236.103,143.887 235.495 C 143.979 234.886,143.977 233.986,143.882 233.495 C 143.787 233.003,143.711 233.500,143.714 234.600 M331.693 236.800 C 331.693 237.570,331.775 237.885,331.876 237.500 C 331.976 237.115,331.976 236.485,331.876 236.100 C 331.775 235.715,331.693 236.030,331.693 236.800 M147.900 239.898 C 149.715 239.972,152.685 239.972,154.500 239.898 C 156.315 239.823,154.830 239.763,151.200 239.763 C 147.570 239.763,146.085 239.823,147.900 239.898 M335.500 239.898 C 337.315 239.972,340.285 239.972,342.100 239.898 C 343.915 239.823,342.430 239.763,338.800 239.763 C 335.170 239.763,333.685 239.823,335.500 239.898 M45.286 293.861 C 45.039 294.665,44.996 295.160,45.190 294.961 C 45.582 294.561,46.189 292.400,45.910 292.400 C 45.814 292.400,45.532 293.058,45.286 293.861 M230.717 297.241 C 229.682 298.318,228.910 299.200,229.003 299.200 C 229.367 299.200,232.053 296.648,232.429 295.945 C 232.977 294.922,232.864 295.007,230.717 297.241 M273.401 297.134 C 274.060 297.868,274.960 298.655,275.400 298.883 C 275.840 299.111,276.020 299.140,275.800 298.948 C 275.580 298.755,274.680 297.968,273.801 297.199 L 272.202 295.800 273.401 297.134 M42.385 298.029 L 41.000 299.258 42.500 298.181 C 43.826 297.230,44.257 296.800,43.885 296.800 C 43.822 296.800,43.147 297.353,42.385 298.029 M27.000 301.200 L 20.200 301.429 26.800 301.475 C 30.430 301.500,33.850 301.376,34.400 301.200 C 35.133 300.965,35.186 300.892,34.600 300.925 C 34.160 300.950,30.740 301.074,27.000 301.200 M95.276 301.260 C 95.784 301.403,99.170 301.511,102.800 301.500 C 110.820 301.476,109.791 301.269,100.876 301.114 C 97.287 301.051,94.767 301.117,95.276 301.260 M214.600 301.200 L 207.800 301.429 214.400 301.467 C 218.030 301.488,221.540 301.368,222.200 301.200 C 223.224 300.939,223.254 300.900,222.400 300.933 C 221.850 300.954,218.340 301.074,214.600 301.200 M282.876 301.260 C 283.384 301.403,286.770 301.511,290.400 301.500 C 298.420 301.476,297.391 301.269,288.476 301.114 C 284.887 301.051,282.367 301.117,282.876 301.260 M18.977 305.499 L 19.000 309.400 64.600 309.400 L 110.200 309.400 110.224 305.400 L 110.248 301.400 110.110 305.300 L 109.971 309.200 64.600 309.200 L 19.229 309.200 19.092 305.399 L 18.954 301.598 18.977 305.499 M206.570 302.133 C 206.458 302.427,206.420 304.182,206.486 306.033 L 206.607 309.400 206.804 305.499 C 206.999 301.625,206.963 301.110,206.570 302.133 M297.997 305.518 L 298.194 309.400 298.314 305.836 C 298.379 303.877,298.291 302.130,298.116 301.955 C 297.942 301.780,297.889 303.383,297.997 305.518 M229.700 309.500 C 242.185 309.559,262.615 309.559,275.100 309.500 C 287.585 309.441,277.370 309.393,252.400 309.393 C 227.430 309.393,217.215 309.441,229.700 309.500 " stroke="none" fill="#6c4c64" fill-rule="evenodd"></path><path id="path3" d="" stroke="none" fill="#81546c" fill-rule="evenodd"></path><path id="path4" d="M105.977 90.700 C 175.245 90.781,193.427 90.905,193.707 91.301 C 193.969 91.670,194.018 91.643,193.897 91.200 C 193.752 90.669,183.663 90.600,106.167 90.599 L 18.600 90.597 105.977 90.700 M206.662 90.699 C 206.560 90.865,245.880 90.954,294.041 90.898 L 381.606 90.796 381.503 117.698 L 381.400 144.600 373.900 144.600 C 369.775 144.600,366.400 144.739,366.400 144.909 C 366.400 145.078,369.865 145.168,374.100 145.109 L 381.800 145.000 381.800 117.800 L 381.800 90.600 294.324 90.499 C 246.212 90.444,206.765 90.534,206.662 90.699 M18.546 95.000 C 18.547 97.200,18.614 98.049,18.695 96.887 C 18.776 95.724,18.776 93.924,18.693 92.887 C 18.611 91.849,18.545 92.800,18.546 95.000 M206.064 95.076 C 206.029 97.098,206.135 98.837,206.300 98.939 C 206.465 99.042,206.550 97.928,206.490 96.463 C 206.297 91.823,206.130 91.279,206.064 95.076 M19.233 99.345 C 19.325 99.425,22.730 99.574,26.800 99.676 C 30.870 99.777,33.120 99.731,31.800 99.574 C 29.316 99.277,18.939 99.088,19.233 99.345 M207.233 99.345 C 207.325 99.425,210.730 99.574,214.800 99.676 C 218.870 99.777,221.120 99.731,219.800 99.574 C 217.316 99.277,206.939 99.088,207.233 99.345 M36.200 100.400 C 36.640 100.589,37.270 100.744,37.600 100.744 C 37.978 100.744,37.904 100.617,37.400 100.400 C 36.960 100.211,36.330 100.056,36.000 100.056 C 35.622 100.056,35.696 100.183,36.200 100.400 M229.600 102.525 C 229.600 102.594,230.185 103.179,230.900 103.825 L 232.200 105.000 231.025 103.700 C 229.930 102.488,229.600 102.216,229.600 102.525 M156.800 104.400 C 157.130 104.613,157.850 104.773,158.400 104.754 L 159.400 104.720 158.400 104.400 C 156.858 103.906,156.036 103.906,156.800 104.400 M344.800 104.382 C 345.130 104.605,345.745 104.791,346.167 104.794 C 347.190 104.802,346.871 104.573,345.400 104.244 C 344.524 104.048,344.362 104.085,344.800 104.382 M83.295 150.276 C 83.243 175.618,83.335 196.436,83.500 196.538 C 83.772 196.706,83.769 164.546,83.495 120.800 C 83.438 111.670,83.348 124.934,83.295 150.276 M163.600 106.524 C 163.600 106.617,164.365 107.198,165.300 107.815 C 166.235 108.432,166.789 108.680,166.531 108.368 C 166.034 107.767,163.600 106.236,163.600 106.524 M233.058 108.000 C 233.375 109.725,233.602 110.051,233.594 108.767 C 233.591 108.235,233.411 107.530,233.194 107.200 C 232.918 106.778,232.877 107.015,233.058 108.000 M45.459 109.000 C 45.593 110.100,45.769 111.075,45.851 111.167 C 46.164 111.517,45.926 108.561,45.580 107.800 C 45.335 107.261,45.295 107.654,45.459 109.000 M352.944 107.509 C 353.260 108.021,355.600 109.753,355.600 109.475 C 355.600 109.376,354.939 108.791,354.132 108.175 C 353.324 107.559,352.789 107.259,352.944 107.509 M168.044 110.206 C 168.618 110.863,169.563 112.117,170.144 112.993 C 170.725 113.869,171.200 114.441,171.200 114.265 C 171.200 113.729,168.955 110.652,167.947 109.806 C 167.102 109.098,167.112 109.141,168.044 110.206 M364.056 130.400 C 364.056 130.730,364.211 131.360,364.400 131.800 C 364.617 132.304,364.744 132.378,364.744 132.000 C 364.744 131.670,364.589 131.040,364.400 130.600 C 364.183 130.096,364.056 130.022,364.056 130.400 M176.406 131.233 C 176.409 131.765,176.589 132.470,176.806 132.800 C 177.082 133.222,177.123 132.985,176.942 132.000 C 176.625 130.275,176.398 129.949,176.406 131.233 M364.856 134.600 C 364.856 135.040,365.011 135.760,365.200 136.200 L 365.544 137.000 365.544 136.200 C 365.544 135.760,365.389 135.040,365.200 134.600 L 364.856 133.800 364.856 134.600 M177.268 135.400 C 177.262 135.840,177.411 136.560,177.600 137.000 C 178.038 138.019,178.038 136.968,177.600 135.600 C 177.343 134.796,177.277 134.757,177.268 135.400 M365.669 139.600 C 365.656 140.150,365.795 141.320,365.977 142.200 C 366.189 143.226,366.316 143.441,366.331 142.800 C 366.344 142.250,366.205 141.080,366.023 140.200 C 365.811 139.174,365.684 138.959,365.669 139.600 M178.028 141.633 C 178.044 142.385,178.220 143.360,178.420 143.800 C 178.665 144.339,178.705 143.946,178.541 142.600 C 178.251 140.219,177.989 139.724,178.028 141.633 M186.200 144.800 L 178.600 145.027 186.076 145.113 C 190.725 145.167,193.646 145.049,193.800 144.800 C 193.936 144.580,193.992 144.439,193.924 144.487 C 193.856 144.534,190.380 144.675,186.200 144.800 M144.080 166.880 C 143.816 167.144,143.624 167.909,143.653 168.580 C 143.705 169.791,143.707 169.789,143.953 168.400 L 144.200 167.000 151.200 167.000 L 158.200 167.000 158.302 203.175 C 158.383 231.835,158.300 239.424,157.902 239.706 C 157.529 239.970,157.554 240.019,158.000 239.897 C 158.780 239.684,159.128 167.877,158.353 166.944 C 157.744 166.210,144.808 166.152,144.080 166.880 M331.590 167.426 C 331.376 167.990,331.221 169.025,331.246 169.726 C 331.295 171.048,331.379 170.826,331.790 168.309 L 332.033 166.818 339.116 166.699 L 346.200 166.580 339.090 166.490 L 331.980 166.400 331.590 167.426 M346.000 203.480 C 345.890 223.544,345.936 239.824,346.102 239.658 C 346.268 239.492,346.358 223.076,346.302 203.178 L 346.200 167.000 346.000 203.480 M143.000 174.000 C 142.845 175.128,142.802 176.136,142.906 176.239 C 143.009 176.342,143.216 175.500,143.367 174.367 C 143.517 173.234,143.559 172.226,143.461 172.128 C 143.363 172.029,143.155 172.872,143.000 174.000 M330.600 175.200 C 330.446 176.110,330.404 176.938,330.507 177.040 C 330.610 177.143,330.813 176.477,330.960 175.560 C 331.107 174.643,331.148 173.815,331.053 173.720 C 330.958 173.624,330.754 174.290,330.600 175.200 M142.256 178.884 C 142.121 179.388,142.027 180.160,142.046 180.600 C 142.065 181.040,142.245 180.698,142.446 179.840 C 142.836 178.178,142.670 177.340,142.256 178.884 M329.850 180.050 C 329.517 181.717,329.840 182.040,330.200 180.400 C 330.352 179.709,330.393 179.059,330.291 178.958 C 330.189 178.856,329.991 179.347,329.850 180.050 M141.449 183.015 C 141.312 183.373,141.215 183.966,141.234 184.333 C 141.253 184.700,141.427 184.469,141.621 183.820 C 141.998 182.558,141.865 181.933,141.449 183.015 M137.426 193.100 C 136.562 194.205,136.493 194.390,137.163 193.804 C 137.965 193.104,139.023 191.600,138.714 191.600 C 138.651 191.600,138.072 192.275,137.426 193.100 M324.826 193.322 L 323.851 194.600 325.126 193.425 C 326.451 192.203,326.603 191.985,326.100 192.022 C 325.935 192.034,325.362 192.619,324.826 193.322 M83.680 210.080 C 83.312 210.448,83.223 219.922,83.297 250.780 L 83.394 291.000 83.597 250.600 L 83.800 210.200 107.000 209.995 L 130.200 209.790 107.180 209.695 C 89.701 209.623,84.044 209.716,83.680 210.080 M271.462 209.900 C 271.293 210.172,288.462 210.168,309.600 209.891 C 314.110 209.831,307.416 209.742,294.724 209.691 C 282.032 209.641,271.564 209.735,271.462 209.900 M323.200 211.964 C 323.750 212.414,324.380 212.783,324.600 212.785 C 325.028 212.788,324.305 212.234,323.000 211.560 C 322.469 211.285,322.536 211.421,323.200 211.964 M137.018 213.209 C 137.668 213.985,138.523 215.065,138.917 215.609 C 139.608 216.563,139.608 216.551,138.921 215.282 C 138.528 214.557,137.673 213.477,137.021 212.882 L 135.836 211.800 137.018 213.209 M141.206 222.633 C 141.209 223.055,141.395 223.670,141.618 224.000 C 141.915 224.438,141.952 224.276,141.756 223.400 C 141.427 221.929,141.198 221.610,141.206 222.633 M329.668 225.400 C 329.662 225.840,329.811 226.560,330.000 227.000 C 330.438 228.019,330.438 226.968,330.000 225.600 C 329.743 224.796,329.677 224.757,329.668 225.400 M142.028 226.433 C 142.044 226.965,142.219 227.760,142.419 228.200 C 142.671 228.758,142.707 228.515,142.538 227.400 C 142.255 225.543,141.987 225.036,142.028 226.433 M330.480 230.400 C 330.480 230.950,330.624 231.850,330.800 232.400 L 331.120 233.400 331.120 232.400 C 331.120 231.850,330.976 230.950,330.800 230.400 L 330.480 229.400 330.480 230.400 M142.840 231.433 C 142.862 232.075,143.033 233.050,143.220 233.600 C 143.449 234.274,143.484 233.949,143.328 232.600 C 143.069 230.350,142.779 229.659,142.840 231.433 M331.370 237.335 C 331.447 238.399,331.736 239.479,332.013 239.735 C 332.401 240.093,332.450 240.080,332.223 239.680 C 332.061 239.394,331.771 238.314,331.580 237.280 L 331.231 235.400 331.370 237.335 M143.744 238.369 C 143.778 239.212,144.031 239.800,144.400 239.900 C 144.805 240.009,144.849 239.953,144.536 239.729 C 144.281 239.547,143.986 238.858,143.880 238.199 C 143.703 237.101,143.692 237.115,143.744 238.369 M45.664 290.250 C 45.629 290.718,45.505 291.707,45.389 292.450 C 45.196 293.686,45.215 293.717,45.608 292.814 C 45.845 292.272,45.968 291.282,45.883 290.614 C 45.791 289.897,45.702 289.748,45.664 290.250 M233.254 291.867 C 233.225 292.344,233.096 293.064,232.970 293.467 C 232.752 294.161,232.764 294.162,233.196 293.488 C 233.447 293.097,233.575 292.377,233.481 291.888 C 233.309 291.001,233.309 291.001,233.254 291.867 M230.575 297.300 L 229.400 298.600 230.700 297.425 C 231.415 296.779,232.000 296.194,232.000 296.125 C 232.000 295.816,231.670 296.088,230.575 297.300 M273.771 297.097 C 274.415 297.809,275.030 298.304,275.138 298.196 C 275.245 298.088,275.258 297.955,275.167 297.900 C 275.075 297.845,274.460 297.351,273.800 296.801 L 272.600 295.803 273.771 297.097 M92.200 300.381 C 92.968 300.729,95.110 300.956,94.767 300.653 C 94.675 300.572,93.880 300.396,93.000 300.262 C 91.885 300.093,91.642 300.129,92.200 300.381 M223.400 300.400 C 222.293 300.682,222.277 300.709,223.200 300.747 C 223.750 300.769,224.470 300.613,224.800 300.400 C 225.481 299.960,225.129 299.960,223.400 300.400 M280.000 300.405 C 280.330 300.616,281.125 300.791,281.767 300.794 C 283.314 300.802,282.977 300.571,281.000 300.268 C 279.910 300.101,279.591 300.145,280.000 300.405 M23.320 301.098 C 25.255 301.172,28.315 301.171,30.120 301.097 C 31.924 301.023,30.340 300.963,26.600 300.964 C 22.860 300.964,21.384 301.025,23.320 301.098 M99.320 301.098 C 101.255 301.172,104.315 301.171,106.120 301.097 C 107.924 301.023,106.340 300.963,102.600 300.964 C 98.860 300.964,97.384 301.025,99.320 301.098 M206.889 301.423 C 205.856 302.147,205.531 308.571,206.480 309.520 C 207.025 310.065,297.802 310.244,298.138 309.700 C 298.240 309.535,277.686 309.400,252.462 309.400 L 206.600 309.400 206.484 305.836 C 206.332 301.211,205.948 301.440,214.319 301.182 L 221.400 300.964 214.589 300.882 C 208.977 300.814,207.621 300.910,206.889 301.423 M287.100 301.098 C 288.915 301.172,291.885 301.172,293.700 301.098 C 295.515 301.023,294.030 300.963,290.400 300.963 C 286.770 300.963,285.285 301.023,287.100 301.098 M109.916 301.503 C 110.290 301.767,110.400 302.903,110.316 305.633 L 110.200 309.400 64.600 309.400 L 19.000 309.400 18.777 305.600 L 18.553 301.800 18.477 305.420 C 18.426 307.797,18.565 309.205,18.880 309.520 C 19.647 310.287,109.729 310.209,110.367 309.440 C 111.092 308.566,110.775 301.512,110.000 301.302 C 109.540 301.177,109.520 301.224,109.916 301.503 " stroke="none" fill="#845474" fill-rule="evenodd"></path></g></svg>